<?xml version="1.0" encoding="UTF-8"?>
<svg xmlns="http://www.w3.org/2000/svg" id="outline" viewBox="0 0 512 512" width="512" height="512"><path d="M40,368H160v48H128a8.00039,8.00039,0,0,0-8,8v32a8.00039,8.00039,0,0,0,8,8H288a8.00039,8.00039,0,0,0,8-8V424a8.00039,8.00039,0,0,0-8-8H256V368h48V352H40a8.00917,8.00917,0,0,1-8-8V112H384v16h16V72a24.0275,24.0275,0,0,0-24-24H40A24.0275,24.0275,0,0,0,16,72V344A24.0275,24.0275,0,0,0,40,368Zm240,80H136V432H280Zm-80-80v16a8,8,0,0,0,16,0V368h24v48H176V368ZM40,64H376a8.00917,8.00917,0,0,1,8,8V96H32V72A8.00917,8.00917,0,0,1,40,64Z"/><path d="M488,256H448V152a8.00039,8.00039,0,0,0-8-8H302.624a24,24,0,1,0,0,16H384v80h16V160h32v96H328a8.00039,8.00039,0,0,0-8,8V456a8.00039,8.00039,0,0,0,8,8H488a8.00039,8.00039,0,0,0,8-8V264A8.00039,8.00039,0,0,0,488,256ZM280,160a8,8,0,1,1,8-8A8.00917,8.00917,0,0,1,280,160Zm56,176H480v48H336Zm0-64H480v48H336ZM480,448H336V400H480Z"/><path d="M120,224a8.00039,8.00039,0,0,0-8-8H91.31348l-5.65625-5.65723A8.00235,8.00235,0,0,0,80,208H56a8.00039,8.00039,0,0,0-8,8v40a8.00039,8.00039,0,0,0,8,8h56a8.00039,8.00039,0,0,0,8-8Zm-16,24H64V224H76.68652l5.65625,5.65723A8.00235,8.00235,0,0,0,88,232h16Z"/><path d="M208,224a8.00039,8.00039,0,0,0-8-8H179.31348l-5.65625-5.65723A8.00235,8.00235,0,0,0,168,208H144a8.00039,8.00039,0,0,0-8,8v40a8.00039,8.00039,0,0,0,8,8h56a8.00039,8.00039,0,0,0,8-8Zm-16,24H152V224h12.68652l5.65625,5.65723A8.00235,8.00235,0,0,0,176,232h16Z"/><path d="M120,152a8.00039,8.00039,0,0,0-8-8H91.31348l-5.65625-5.65723A8.00235,8.00235,0,0,0,80,136H56a8.00039,8.00039,0,0,0-8,8v40a8.00039,8.00039,0,0,0,8,8h56a8.00039,8.00039,0,0,0,8-8Zm-16,24H64V152H76.68652l5.65625,5.65723A8.00235,8.00235,0,0,0,88,160h16Z"/><path d="M208,152a8.00039,8.00039,0,0,0-8-8H179.31348l-5.65625-5.65723A8.00235,8.00235,0,0,0,168,136H144a8.00039,8.00039,0,0,0-8,8v40a8.00039,8.00039,0,0,0,8,8h56a8.00039,8.00039,0,0,0,8-8Zm-16,24H152V152h12.68652l5.65625,5.65723A8.00235,8.00235,0,0,0,176,160h16Z"/><path d="M112,288H91.31348l-5.65625-5.65723A8.00235,8.00235,0,0,0,80,280H56a8.00039,8.00039,0,0,0-8,8v40a8.00039,8.00039,0,0,0,8,8h56a8.00039,8.00039,0,0,0,8-8V296A8.00039,8.00039,0,0,0,112,288Zm-8,32H64V296H76.68652l5.65625,5.65723A8.00235,8.00235,0,0,0,88,304h16Z"/><path d="M200,288H179.31348l-5.65625-5.65723A8.00235,8.00235,0,0,0,168,280H144a8.00039,8.00039,0,0,0-8,8v40a8.00039,8.00039,0,0,0,8,8h56a8.00039,8.00039,0,0,0,8-8V296A8.00039,8.00039,0,0,0,200,288Zm-8,32H152V296h12.68652l5.65625,5.65723A8.00235,8.00235,0,0,0,176,304h16Z"/><path d="M296,224a8.00039,8.00039,0,0,0-8-8H267.31348l-5.65625-5.65723A8.00235,8.00235,0,0,0,256,208H232a8.00039,8.00039,0,0,0-8,8v40a8.00039,8.00039,0,0,0,8,8h56a8.00039,8.00039,0,0,0,8-8Zm-16,24H240V224h12.68652l5.65625,5.65723A8.00235,8.00235,0,0,0,264,232h16Z"/><path d="M288,288H267.31348l-5.65625-5.65723A8.00235,8.00235,0,0,0,256,280H232a8.00039,8.00039,0,0,0-8,8v40a8.00039,8.00039,0,0,0,8,8h56a8.00039,8.00039,0,0,0,8-8V296A8.00039,8.00039,0,0,0,288,288Zm-8,32H240V296h12.68652l5.65625,5.65723A8.00235,8.00235,0,0,0,264,304h16Z"/><circle cx="48" cy="80" r="8"/><circle cx="72" cy="80" r="8"/><circle cx="96" cy="80" r="8"/><circle cx="360" cy="296" r="8"/><rect x="384" y="280" width="16" height="32"/><rect x="408" y="280" width="16" height="32"/><circle cx="360" cy="360" r="8"/><rect x="384" y="344" width="16" height="32"/><rect x="408" y="344" width="16" height="32"/><circle cx="360" cy="424" r="8"/><rect x="384" y="408" width="16" height="32"/><rect x="408" y="408" width="16" height="32"/></svg>
