<?xml version="1.0" encoding="UTF-8"?>
<svg xmlns="http://www.w3.org/2000/svg" id="Layer_1" data-name="Layer 1" viewBox="0 0 512 512" width="512" height="512"><path d="M431.4,171a19.9,19.9,0,0,0,18.732-14H496a6,6,0,0,0,0-12H450.129c-2.544-8-9.976-13-18.732-13H406.663A31.615,31.615,0,0,0,380,105.337V80.6c0-8.756-5-16.188-13-18.732V16a6,6,0,0,0-12,0V61.871A19.9,19.9,0,0,0,341,80.6V105H328V80.6a19.9,19.9,0,0,0-14-18.732V16a6,6,0,0,0-12,0V61.871c-8,2.543-13,9.975-13,18.732V105H276V80.6a20,20,0,0,0-14-18.732V16a6,6,0,0,0-12,0V61.871A20,20,0,0,0,236,80.6V105H223V80.6c0-8.757-5-16.189-13-18.732V16a6,6,0,0,0-12,0V61.871A19.9,19.9,0,0,0,184,80.6V105H171V80.6a19.9,19.9,0,0,0-14-18.732V16a6,6,0,0,0-12,0V61.871c-8,2.544-13,9.976-13,18.732v24.734A31.615,31.615,0,0,0,105.337,132H80.6c-8.756,0-16.188,5-18.732,13H16a6,6,0,0,0,0,12H61.871A19.9,19.9,0,0,0,80.6,171H105v13H80.6a19.9,19.9,0,0,0-18.732,14H16a6,6,0,0,0,0,12H61.87c2.544,8,9.976,13,18.733,13H105v13H80.6a20,20,0,0,0-18.732,14H16a6,6,0,0,0,0,12H61.87A20,20,0,0,0,80.6,276H105v13H80.6c-8.756,0-16.189,5-18.732,13H16a6,6,0,0,0,0,12H61.871A19.9,19.9,0,0,0,80.6,328H105v13H80.6a19.9,19.9,0,0,0-18.732,14H16a6,6,0,0,0,0,12H61.871c2.544,8,9.976,13,18.732,13h24.734A31.615,31.615,0,0,0,132,406.663V431.4c0,8.756,5,16.188,13,18.732V496a6,6,0,0,0,12,0V450.129A19.9,19.9,0,0,0,171,431.4V407h13v24.4a19.9,19.9,0,0,0,14,18.732V496a6,6,0,0,0,12,0V450.129c8-2.543,13-9.975,13-18.732V407h13v24.4a20,20,0,0,0,14,18.732V496a6,6,0,0,0,12,0V450.129A20,20,0,0,0,276,431.4V407h13v24.4c0,8.757,5,16.189,13,18.732V496a6,6,0,0,0,12,0V450.129A19.9,19.9,0,0,0,328,431.4V407h13v24.4a19.9,19.9,0,0,0,14,18.732V496a6,6,0,0,0,12,0V450.129c8-2.544,13-9.976,13-18.732V406.663A31.615,31.615,0,0,0,406.663,380H431.4c8.756,0,16.187-5,18.732-13H496a6,6,0,0,0,0-12H450.13A19.9,19.9,0,0,0,431.4,341H407V328h24.4a19.9,19.9,0,0,0,18.732-14H496a6,6,0,0,0,0-12H450.13c-2.544-8-9.976-13-18.733-13H407V276h24.4a20,20,0,0,0,18.732-14H496a6,6,0,0,0,0-12H450.13A20,20,0,0,0,431.4,236H407V223h24.4c8.756,0,16.189-5,18.732-13H496a6,6,0,0,0,0-12H450.129A19.9,19.9,0,0,0,431.4,184H407V171ZM407,144h24.4a7.5,7.5,0,1,1,0,15H407ZM105,368H80.6a7.5,7.5,0,1,1,0-15H105Zm0-52H80.6a7.5,7.5,0,1,1,0-15H105Zm0-52H80.6a8.007,8.007,0,0,1,0-16H105Zm0-53H80.6a7.5,7.5,0,1,1,0-15H105Zm0-52H80.6a7.5,7.5,0,1,1,0-15H105ZM353,80.6a7.5,7.5,0,1,1,15,0V105H353Zm-52,0a7.5,7.5,0,1,1,15,0V105H301Zm-53,0a8.007,8.007,0,0,1,16,0V105H248Zm-52,0a7.5,7.5,0,1,1,15,0V105H196Zm-52,0a7.5,7.5,0,1,1,15,0V105H144ZM159,431.4a7.5,7.5,0,1,1-15,0V407h15Zm52,0a7.5,7.5,0,1,1-15,0V407h15Zm53,0a8.007,8.007,0,0,1-16,0V407h16Zm52,0a7.5,7.5,0,1,1-15,0V407h15Zm52,0a7.5,7.5,0,1,1-15,0V407h15Zm27-56A19.6,19.6,0,0,1,375.4,395H136.6A19.6,19.6,0,0,1,117,375.4V136.6A19.6,19.6,0,0,1,136.6,117H375.4A19.6,19.6,0,0,1,395,136.6ZM431.4,353a7.5,7.5,0,1,1,0,15H407V353Zm0-52a7.5,7.5,0,1,1,0,15H407V301Zm0-53a8.007,8.007,0,0,1,0,16H407V248Zm0-52a7.5,7.5,0,1,1,0,15H407V196Z"/><path d="M358,148H154a6,6,0,0,0-6,6V358a6,6,0,0,0,6,6H358a6,6,0,0,0,6-6V154A6,6,0,0,0,358,148Zm-6,204H160V160H352Z"/><path d="M218,300h76a6,6,0,0,0,6-6V218a6,6,0,0,0-6-6H218a6,6,0,0,0-6,6v76A6,6,0,0,0,218,300Zm6-76h64v64H224Z"/><path d="M131,150.136a6,6,0,0,0-6,6v3.455a6,6,0,0,0,12,0v-3.455A6,6,0,0,0,131,150.136Z"/><path d="M131,172.839a6,6,0,0,0-6,6v59.3a6,6,0,0,0,12,0v-59.3A6,6,0,0,0,131,172.839Z"/></svg>
